<?xml version="1.0" standalone="no"?>
<!DOCTYPE svg PUBLIC "-//W3C//DTD SVG 20010904//EN"
 "http://www.w3.org/TR/2001/REC-SVG-20010904/DTD/svg10.dtd">
<svg version="1.0" xmlns="http://www.w3.org/2000/svg"
 width="7730.000000pt" height="7730.000000pt" viewBox="0 0 7730.000000 7730.000000"
 preserveAspectRatio="xMidYMid meet">

<g transform="translate(0.000000,7730.000000) scale(0.100000,-0.100000)"
fill="#000000" stroke="none">
<path d="M38330 57593 c-1270 -47 -2479 -336 -3611 -863 -166 -78 -349 -170
-469 -235 -41 -23 -100 -55 -130 -72 -655 -357 -1367 -884 -1925 -1423 -403
-390 -711 -739 -1030 -1165 -1030 -1378 -1663 -3026 -1819 -4740 -9 -93 -24
-215 -34 -270 -22 -128 -24 -651 -3 -958 8 -114 12 -210 9 -213 -3 -3 -293 0
-644 5 -1820 30 -4588 65 -7354 93 -1668 17 -6512 17 -7335 0 -346 -7 -684
-17 -750 -23 -242 -21 -511 -84 -725 -169 -984 -392 -1662 -1325 -1750 -2405
-8 -104 -10 -3528 -8 -13155 3 -12239 5 -13022 21 -13140 71 -519 182 -895
383 -1305 160 -327 358 -619 605 -895 l89 -99 -928 -4 c-805 -3 -936 -6 -998
-20 -524 -117 -906 -497 -1016 -1010 -28 -133 -31 -378 -5 -510 92 -465 435
-849 886 -991 46 -14 124 -33 174 -41 81 -13 2604 -15 21550 -15 l21457 0 0
-212 c0 -117 3 -250 7 -295 l6 -82 106 -25 c159 -38 222 -46 386 -52 110 -5
177 -2 252 10 113 17 263 63 263 80 0 6 7 126 15 266 8 140 15 267 15 283 l0
27 1831 -2 1831 -3 23 -55 24 -55 98 2 c189 3 481 51 655 106 44 14 80 21 85
16 5 -5 1876 -8 4379 -6 4100 2 4373 3 4439 20 273 67 486 187 664 373 174
182 284 388 337 634 26 120 26 400 1 520 -55 257 -173 477 -352 656 -181 182
-392 298 -650 357 -85 19 -127 21 -716 24 l-626 4 29 81 c74 210 130 490 147
743 6 83 15 337 21 565 5 228 15 591 20 805 102 4005 149 8651 121 12050 -6
776 -13 1502 -16 1615 -3 113 -7 376 -10 585 -8 568 -26 1437 -40 1950 -18
663 -24 881 -30 1055 -3 80 -10 278 -15 440 -12 356 -38 1021 -45 1180 -3 63
-7 165 -10 225 -27 602 -69 1401 -100 1910 -23 360 -54 841 -60 915 -3 36 -17
211 -30 390 -90 1174 -201 2236 -326 3110 -62 439 -108 632 -213 894 -323 805
-961 1415 -1756 1679 -255 85 -478 122 -815 137 -349 16 -2416 78 -3620 110
-231 6 -823 22 -1315 35 -1054 29 -2668 71 -3030 80 -386 8 -1408 34 -1640 40
-113 3 -860 21 -1660 40 -1523 36 -1782 42 -2070 50 -96 3 -303 7 -460 10
-157 3 -343 7 -415 10 -71 3 -274 7 -450 11 -176 3 -321 7 -323 9 -2 1 4 79
12 171 27 291 36 515 36 879 0 1250 -249 2459 -750 3635 -81 192 -305 645
-417 845 -330 590 -778 1216 -1194 1670 -137 150 -338 361 -416 435 -174 169
-321 304 -458 421 -1402 1200 -3105 1954 -4930 2183 -483 61 -1026 86 -1485
69z m615 -523 c509 -19 948 -69 1415 -161 1535 -303 2936 -994 4130 -2038 175
-153 588 -561 733 -724 858 -963 1479 -2059 1852 -3267 226 -735 347 -1453
386 -2310 9 -173 15 -239 25 -251 17 -19 19 -304 4 -664 -29 -689 -109 -1205
-264 -1690 -24 -77 -56 -198 -71 -270 -63 -307 -189 -828 -296 -1220 -628
-2301 -1717 -5044 -3224 -8112 -101 -205 -187 -373 -191 -373 -4 0 -15 6 -23
14 -46 39 -289 198 -461 300 -646 387 -1366 668 -2096 820 -503 105 -852 140
-1404 140 -402 1 -527 -6 -848 -44 -1543 -187 -2965 -891 -4054 -2008 l-137
-141 -70 137 c-525 1038 -898 1797 -1188 2422 -556 1193 -951 2101 -1351 3100
-755 1888 -1291 3544 -1637 5060 -30 135 -64 277 -75 315 -85 306 -183 848
-224 1245 -22 210 -24 236 -36 435 -5 99 -12 207 -15 240 -12 165 -17 487 -8
493 6 4 14 57 18 117 30 510 80 919 161 1330 284 1436 924 2784 1860 3915 350
423 816 885 1244 1231 1483 1201 3308 1887 5209 1958 292 11 352 11 636 1z
m-24167 -11615 l1293 -1245 6985 0 c5579 0 6985 -3 6989 -12 2 -7 47 -157 100
-333 53 -176 136 -444 185 -597 50 -152 90 -281 90 -287 0 -8 -1813 -12 -6528
-13 l-6529 -3 371 -357 c204 -197 396 -382 426 -411 30 -29 1407 -1355 3060
-2947 1653 -1591 3061 -2948 3130 -3015 69 -67 433 -418 810 -780 377 -362
721 -694 766 -737 l81 -80 2638 2997 2638 2997 117 -289 c64 -158 183 -447
264 -640 l148 -353 -80 -92 c-45 -51 -1032 -1173 -2195 -2493 l-2114 -2400 41
-3 c23 -1 1461 36 3197 83 1736 47 3193 85 3237 85 l81 0 -98 -139 c-197 -281
-352 -543 -518 -881 -64 -129 -117 -236 -118 -238 -3 -3 -6600 -182 -6717
-182 l-78 0 0 -3260 0 -3260 3829 0 3829 0 114 -137 c224 -269 474 -523 747
-763 108 -95 368 -303 447 -358 30 -20 54 -40 54 -44 0 -5 -2029 -8 -4510 -8
l-4510 0 0 -3467 0 -3466 -257 6 c-141 4 -418 7 -615 7 l-358 0 0 1880 0 1880
-6447 0 -6446 0 6 278 c4 152 7 413 7 580 l0 302 6440 0 6440 0 0 3519 0 3519
-6434 4 c-3539 1 -6436 5 -6439 8 -3 3 -8 278 -12 613 l-7 607 6446 0 6446 0
0 1078 -1 1077 -1927 1857 c-2135 2056 -1884 1815 -6296 6068 -1743 1680
-3453 3328 -3800 3663 -347 334 -635 613 -640 621 -6 9 3 33 29 75 146 241
364 458 603 598 84 50 262 132 287 133 6 0 592 -560 1303 -1245z m42677 425
c523 -11 997 -21 1054 -23 l105 -2 -809 -480 c-445 -264 -1219 -723 -1719
-1020 l-911 -541 -3 -6385 -2 -6386 73 -94 c800 -1036 1208 -2141 1207 -3274
-1 -699 -145 -1354 -452 -2049 -101 -229 -298 -604 -393 -750 -14 -21 53 -66
2828 -1892 l2842 -1871 3 12345 2 12345 193 -7 c105 -3 390 -8 632 -12 242 -3
448 -8 458 -10 16 -5 17 -620 17 -12739 l0 -12734 -32 -3 c-34 -3 -98 40 1470
-992 l253 -167 -58 -112 c-168 -323 -411 -599 -703 -797 l-57 -39 -919 605
c-505 333 -1781 1173 -2835 1866 l-1917 1262 40 58 c56 82 142 277 167 378
104 427 -105 877 -494 1065 -144 69 -2337 861 -2420 874 -39 6 -97 19 -130 30
-72 25 -125 26 -326 6 -216 -21 -408 -51 -591 -91 -245 -53 -406 -43 -497 34
l-34 28 228 209 228 210 -29 11 c-24 10 -2659 970 -2996 1091 l-97 35 -131
397 c-73 218 -135 402 -139 409 -4 8 -160 114 -347 237 l-339 224 -31 -57
c-62 -111 -123 -208 -185 -292 -62 -84 -328 -360 -348 -360 -10 0 -332 116
-1713 617 l-788 286 0 3157 0 3157 -102 -4 c-241 -8 -1211 -33 -1213 -31 -1 2
-35 64 -75 138 -184 341 -444 731 -666 1002 l-63 76 82 6 c45 3 451 15 902 26
451 11 891 23 978 26 l157 7 -1 2391 0 2391 -430 374 c-236 205 -429 379 -429
387 0 7 18 60 41 116 62 156 236 615 329 868 45 124 85 228 89 232 3 3 249
-206 546 -466 l539 -472 121 71 c147 88 6753 4007 7850 4657 l790 468 125 0
c69 0 553 -9 1075 -20z m-17615 -9040 c1784 -113 3392 -922 4516 -2270 578
-694 1019 -1562 1238 -2438 45 -179 86 -375 86 -411 0 -34 -22 -55 -49 -46
-24 7 -23 5 -56 170 -223 1111 -792 2188 -1595 3019 -965 998 -2242 1646
-3625 1840 -337 47 -523 60 -905 60 -383 0 -577 -13 -900 -60 -800 -115 -1577
-381 -2245 -769 -82 -48 -169 -98 -191 -111 -23 -14 -48 -22 -57 -18 -19 7
-29 31 -22 53 8 26 264 173 550 317 763 382 1604 609 2460 663 193 12 607 12
795 1z m140 -575 c996 -97 1897 -415 2710 -958 416 -277 846 -658 1163 -1028
314 -368 562 -745 782 -1194 882 -1796 732 -3927 -393 -5580 -211 -311 -429
-572 -712 -855 -270 -271 -496 -457 -810 -669 -696 -469 -1391 -751 -2225
-905 -344 -63 -654 -90 -1045 -90 -600 0 -1071 67 -1669 239 -216 61 -333 102
-526 180 -709 288 -1348 708 -1870 1230 -478 476 -810 932 -1100 1505 -555
1099 -726 2371 -484 3585 140 699 437 1418 821 1990 582 865 1330 1522 2253
1975 711 350 1482 550 2290 594 150 8 657 -4 815 -19z m5780 -5910 c10 -12 11
-44 6 -129 -10 -176 -35 -378 -48 -393 -6 -8 -23 -13 -37 -11 -24 3 -26 7 -26
53 1 96 38 470 48 483 13 17 42 15 57 -3z m19 -3031 c202 -95 422 -316 481
-486 35 -100 23 -225 -27 -280 -9 -10 -14 -20 -12 -21 2 -2 414 -192 914 -423
l910 -420 3 -2340 c2 -1286 0 -3005 -4 -3819 l-6 -1481 -242 3 c-132 2 -409 6
-613 9 l-373 6 0 3594 0 3594 -1690 0 c-929 0 -1690 3 -1690 8 1 4 38 34 83
67 406 297 803 671 1155 1088 l125 147 466 0 466 1 -123 63 c-141 72 -166 93
-198 161 -32 67 -30 123 6 229 58 173 142 310 205 337 31 13 83 1 164 -37z
m-3419 -5940 l0 -3257 -612 8 c-337 4 -615 9 -617 10 -2 2 -4 1366 -5 3031
l-1 3028 166 47 c323 91 690 223 956 344 54 24 101 45 106 45 4 0 7 -1465 7
-3256z m9647 2474 c470 -217 649 -305 636 -310 -62 -24 -557 -92 -804 -109
l-175 -12 -53 29 c-31 16 -64 44 -79 66 -15 24 -50 130 -93 290 -39 139 -76
274 -84 301 -8 26 -11 47 -8 47 4 0 301 -136 660 -302z m3268 142 c105 -41
123 -58 103 -94 -14 -25 -44 -20 -155 25 -105 42 -128 64 -103 94 19 23 42 19
155 -25z m1284 -501 c767 -299 832 -327 913 -386 122 -89 235 -257 273 -408
21 -79 20 -243 0 -319 -57 -217 -225 -385 -494 -496 -82 -33 -113 -37 -131
-15 -22 26 -2 53 58 75 237 89 407 235 472 407 52 136 33 339 -46 482 -45 80
-168 205 -245 249 -30 17 -397 165 -815 327 -417 163 -764 301 -771 307 -14
11 -18 50 -6 61 3 4 15 7 26 7 11 0 355 -131 766 -291z m-3720 -1089 c269
-138 566 -374 787 -625 84 -95 202 -258 210 -290 8 -32 -23 -94 -51 -101 -12
-3 -37 -4 -56 -2 -29 3 -43 16 -123 123 -98 131 -336 377 -456 471 -111 87
-303 213 -407 267 -51 26 -99 57 -108 70 -22 32 -18 71 11 106 38 45 75 42
193 -19z"/>
<path d="M38530 53923 c-1644 -45 -3174 -811 -4198 -2101 -603 -759 -1000
-1679 -1136 -2634 -44 -303 -51 -415 -51 -798 0 -372 7 -488 46 -770 186
-1342 882 -2596 1924 -3469 896 -749 1975 -1188 3149 -1281 167 -13 644 -13
817 0 1056 81 2073 463 2904 1090 247 187 385 307 615 539 980 987 1547 2289
1599 3676 58 1519 -484 2937 -1548 4058 -415 436 -978 847 -1546 1127 -607
298 -1229 472 -1960 545 -68 7 -482 25 -505 23 -8 -1 -58 -3 -110 -5z m650
-607 c727 -83 1380 -296 1980 -646 1157 -675 1999 -1796 2319 -3090 108 -436
146 -790 138 -1283 -5 -324 -18 -471 -63 -736 -209 -1241 -898 -2368 -1909
-3126 -278 -209 -510 -350 -820 -501 -536 -260 -1053 -405 -1695 -476 -71 -8
-247 -13 -460 -12 -360 0 -501 10 -780 55 -1600 260 -2968 1281 -3675 2744
-269 554 -417 1101 -480 1765 -4 36 -8 173 -10 305 -5 330 14 584 66 895 112
667 366 1315 736 1880 200 304 390 538 648 795 848 848 1926 1346 3130 1444
164 14 715 6 875 -13z"/>
<path d="M53035 42546 c-456 -270 -1197 -710 -1645 -975 -448 -266 -896 -532
-995 -591 -99 -59 -569 -338 -1045 -620 -476 -282 -964 -572 -1085 -644 l-220
-131 -2 -4882 -1 -4881 96 -63 c53 -35 236 -155 406 -267 445 -294 478 -314
487 -305 10 11 64 337 83 508 20 177 36 390 36 478 0 68 0 69 69 170 116 170
196 264 375 442 235 234 431 383 716 545 80 46 146 84 148 86 2 1 -52 205
-119 453 l-123 451 -82 0 c-45 0 -121 7 -170 15 -222 38 -353 115 -410 240
-45 97 -50 185 -30 473 10 141 24 295 32 342 39 223 138 549 285 937 8 22 9
22 102 -22 183 -85 285 -113 680 -185 139 -25 182 -37 245 -69 42 -21 108 -48
145 -61 90 -29 102 -53 94 -190 -6 -109 -31 -210 -88 -353 -21 -54 -39 -101
-39 -103 0 -2 17 -4 38 -4 37 0 39 2 61 58 88 217 203 325 313 293 76 -23 138
-104 138 -181 -1 -48 -38 -155 -80 -224 -42 -70 -143 -181 -199 -220 -39 -27
-41 -32 -41 -78 0 -28 -7 -59 -16 -73 -15 -24 -10 -33 312 -512 180 -268 333
-495 341 -504 12 -14 21 -14 108 3 229 44 578 85 915 109 181 13 890 16 958 4
l42 -7 0 5516 c0 3034 -1 5516 -2 5516 -2 -1 -376 -223 -833 -494z"/>
<path d="M48050 27809 l0 -521 48 40 c153 129 357 382 471 583 l31 56 -42 28
c-24 16 -148 98 -275 182 l-233 153 0 -521z"/>
<path d="M55170 26270 c0 -524 2 -951 4 -949 2 2 11 87 20 189 9 102 19 201
22 220 2 19 7 206 11 415 5 363 -2 599 -27 835 -5 47 -12 119 -15 160 -4 41
-9 77 -11 79 -2 2 -4 -425 -4 -949z"/>
<path d="M58678 13524 c6 -59 -19 -124 -67 -167 -93 -84 -362 -153 -458 -116
-46 17 -91 69 -109 123 -24 73 -31 76 -56 20 -16 -36 -23 -74 -26 -144 -4
-106 21 -234 99 -505 106 -366 289 -739 423 -863 86 -80 207 -122 350 -122
l79 0 -6 35 c-3 19 -1 37 4 41 5 3 7 9 5 13 -3 4 57 14 133 23 151 19 230 43
294 92 49 37 104 107 113 143 8 29 -37 200 -108 418 -130 392 -291 713 -448
888 -53 59 -156 138 -202 156 -25 9 -25 9 -20 -35z"/>
<path d="M53020 12811 c-684 -229 -1174 -483 -1421 -738 -89 -91 -139 -165
-139 -206 0 -18 10 -39 28 -57 34 -33 50 -35 487 -50 378 -13 692 -13 700 0 3
6 -2 10 -12 11 -10 0 -13 3 -5 6 6 2 12 21 12 42 0 20 6 43 13 50 10 11 8 11
-13 1 -23 -12 -24 -12 -11 3 11 14 11 17 0 18 -8 0 -5 4 7 9 12 5 152 0 335
-11 551 -35 890 -25 1072 31 l62 19 -7 123 c-7 143 -33 277 -82 422 -33 99
-117 276 -170 361 l-25 40 -1 -35 c0 -55 -39 -121 -84 -147 -52 -28 -153 -38
-252 -23 -143 21 -220 72 -244 160 -7 27 -16 40 -28 40 -9 -1 -109 -32 -222
-69z"/>
</g>
</svg>
